<?xml version="1.0" encoding="UTF-8"?>
<svg width="380px" height="56px" viewBox="0 0 380 56" version="1.1" xmlns="http://www.w3.org/2000/svg" xmlns:xlink="http://www.w3.org/1999/xlink">
    <!-- Generator: Sketch 44.1 (41455) - http://www.bohemiancoding.com/sketch -->
    <title>logo- noredtape</title>
    <desc>Created with Sketch.</desc>
    <defs>
        <polygon id="path-1" points="0 0.1482 0 30.6772 28.1747 30.6772 28.1747 0.1482 5.42101086e-20 0.1482"></polygon>
        <polygon id="path-3" points="0 55.9221 379.948 55.9221 379.948 0.0001 0 0.0001"></polygon>
    </defs>
    <g id="Symbols" stroke="none" stroke-width="1" fill="none" fill-rule="evenodd">
        <g id="header" transform="translate(-696.000000, -30.000000)">
            <g id="logo--noredtape">
                <g transform="translate(696.000000, 30.000000)">
                    <path d="M58.8145,0.6203 C58.7185,0.7343 58.8115,0.8793 58.8115,0.8793 C58.8115,0.8793 59.0695,0.7773 59.1205,0.8013 C59.1715,0.8263 59.2655,1.1743 59.2055,1.2113 C59.1455,1.2483 59.2305,1.5863 59.2305,1.5863 C59.2305,1.5863 59.5275,1.9353 59.5725,1.9303 C59.6175,1.9233 59.9465,2.1903 59.9465,2.1903 L60.1865,2.3173 C60.1865,2.3173 60.3595,2.5923 60.3325,2.7153 C60.3045,2.8373 60.5745,2.9283 60.6785,3.0633 C60.7835,3.1983 60.8325,3.0293 60.8765,2.9973 C60.9205,2.9663 61.1955,3.0263 60.9635,3.2553 C60.7315,3.4843 61.0675,3.4603 61.1745,3.5143 C61.2805,3.5683 61.3625,3.7243 61.3625,3.7243 C61.3625,3.7243 61.5375,3.9633 61.6315,4.0923 C61.7205,4.0413 61.8305,3.9643 61.9065,3.9983 C62.0235,4.0503 62.0595,4.3143 61.9875,4.3863 C61.9165,4.4573 61.8785,4.9113 61.8925,4.9373 C61.9065,4.9623 61.7125,5.2213 61.7125,5.2213 L62.2505,5.0213 C62.2505,5.0213 62.6435,4.9663 62.8005,4.9143 C62.9565,4.8623 62.7585,5.2563 62.7445,5.3083 C62.7315,5.3613 62.6705,5.7473 62.6615,5.7823 C62.6525,5.8183 63.2465,5.7443 63.3715,5.6603 C63.4945,5.5753 63.6805,5.7283 63.6805,5.7283 C63.6805,5.7283 63.5915,6.0123 63.6265,6.0803 C63.6625,6.1493 64.0905,6.3583 64.1275,6.2963 C64.1635,6.2343 64.5795,6.4313 64.5795,6.4313 C64.5795,6.4313 65.0345,6.8863 65.0335,6.9403 C65.0325,6.9743 65.1815,7.1803 65.2885,7.3243 L63.7385,8.8733 L40.5925,32.0193 L39.7795,32.8323 C39.6255,32.8083 39.4655,32.7753 39.4415,32.7513 C39.4145,32.7233 39.2175,32.7023 38.8895,32.8223 C38.5605,32.9423 38.5405,32.8683 38.4965,32.9113 C38.4535,32.9553 38.2115,32.9223 38.1945,32.8063 C38.1775,32.6903 38.1805,32.5173 38.2315,32.5033 C38.2835,32.4903 38.4105,31.7863 38.4105,31.7863 C38.4105,31.7863 38.3565,31.4793 38.2755,31.3233 C38.1965,31.1663 37.9515,31.3163 37.8945,31.3363 C37.8375,31.3543 37.5535,31.3553 37.5305,31.3213 C37.5075,31.2873 37.3425,30.8933 37.3285,30.8793 C37.3145,30.8653 37.5045,30.5893 37.4935,30.4683 C37.4815,30.3473 37.5415,29.8103 37.4915,29.8593 C37.4425,29.9093 37.1535,30.2213 37.0075,30.3393 C36.8625,30.4563 36.8005,30.1763 36.7985,30.1413 C36.7975,30.1283 36.7805,30.1143 36.7595,30.0983 L36.5105,30.3193 L36.3505,30.4183 L36.1415,30.5143 C36.0355,30.6203 35.7175,30.7463 35.6615,30.6963 C35.5595,30.6053 35.6785,30.2203 35.6435,30.0313 C35.6065,29.8433 35.5455,29.5953 35.5145,29.5633 C35.4825,29.5313 35.4465,29.3213 35.5535,28.9793 C35.6615,28.6383 35.5805,28.6123 35.6235,28.5673 C35.6675,28.5243 35.6175,28.2653 35.4935,28.2403 C35.3695,28.2143 35.1855,28.2063 35.1745,28.2613 C35.1635,28.3153 34.4215,28.4053 34.4215,28.4053 C34.4215,28.4053 34.0935,28.3283 33.9215,28.2333 C33.7495,28.1393 33.8935,27.8883 33.9115,27.8283 C33.9275,27.7693 33.9095,27.4663 33.8725,27.4393 C33.8345,27.4133 33.4055,27.2143 33.3895,27.1983 C33.3735,27.1823 33.0925,27.3673 32.9635,27.3463 C32.8345,27.3263 32.2665,27.3553 32.3155,27.3063 C32.3645,27.2573 32.6795,26.9693 32.7945,26.8223 C32.9095,26.6743 32.6085,26.5923 32.5705,26.5863 C32.5335,26.5823 32.4755,26.4373 32.3725,26.4543 C32.2695,26.4723 32.2735,26.1913 32.2735,26.1913 L32.2775,26.1483 L33.2095,25.2183 L57.0485,1.3783 L58.3555,0.0713 C58.3345,0.1213 58.3135,0.1663 58.2945,0.2003 C58.2205,0.3393 58.5915,0.1323 58.6395,0.1163 C58.6865,0.0993 59.0265,0.0113 59.0575,0.0003 C59.0895,-0.0107 58.9105,0.5063 58.8145,0.6203 Z" id="Fill-1" fill="#E63C2F"></path>
                    <path d="M60.9493,29.8327 C61.0083,29.8287 61.5483,29.2897 61.5483,29.2897 C61.5483,29.2897 61.8003,28.8177 61.7363,28.7837 C61.6713,28.7497 61.9393,28.2627 62.0183,28.2177 C62.0953,28.1727 62.3983,28.2437 62.3983,28.2437 C62.3983,28.2437 62.5823,28.0257 62.5013,27.8987 C62.4203,27.7717 62.3943,27.1297 62.4313,27.1357 C62.4703,27.1427 62.8863,27.1737 62.9423,27.1827 C62.9983,27.1937 63.4093,27.3737 63.3673,27.2077 C63.3253,27.0417 63.3023,26.6167 63.3023,26.6167 L63.1323,26.0467 C63.1323,26.0467 63.3983,26.2347 63.4273,26.2187 C63.4553,26.2007 63.9483,26.1997 64.0193,26.2707 C64.0903,26.3417 64.3823,26.2797 64.4503,26.1457 C64.5173,26.0137 64.3023,25.8127 64.3413,25.7297 C64.3813,25.6457 64.2803,25.3757 64.4993,25.2547 C64.5043,25.2517 64.5043,25.2467 64.5073,25.2427 L63.4083,24.1447 L40.5333,1.2697 L39.4833,0.2187 C39.3593,0.3037 39.2483,0.3767 39.2483,0.3767 L38.9023,0.5487 L38.8843,0.9047 C38.8843,0.9047 38.8403,1.2337 38.7223,1.2317 C38.6043,1.2297 38.5113,1.4097 38.4673,1.4217 C38.4213,1.4337 38.0533,1.5837 38.1633,1.7367 C38.2723,1.8897 38.5913,2.1727 38.6403,2.2227 C38.6903,2.2717 38.0293,2.3357 37.8733,2.3817 C37.7183,2.4287 37.4203,2.2607 37.3993,2.2817 C37.3773,2.3037 36.8383,2.6127 36.7893,2.6507 C36.7403,2.6877 36.6673,3.0457 36.6773,3.1127 C36.6863,3.1817 36.8113,3.4497 36.5933,3.5907 C36.3753,3.7317 35.9753,3.8797 35.9753,3.8797 C35.9753,3.8797 35.1213,3.9027 35.1173,3.8407 C35.1133,3.7797 34.8963,3.8207 34.7463,3.8737 C34.5963,3.9247 34.4913,4.2377 34.5353,4.2807 C34.5783,4.3247 34.4793,4.3687 34.5463,4.7507 C34.6123,5.1347 34.5343,5.3877 34.4913,5.4307 C34.4483,5.4737 34.3333,5.7747 34.2583,6.0027 C34.1833,6.2307 34.2563,6.6627 34.1213,6.7857 C33.9863,6.9107 33.5183,7.3337 33.5183,7.3337 C33.5183,7.3337 33.3033,7.4937 33.2143,7.6487 C33.1493,7.7607 33.1433,7.9557 33.0543,7.9757 L33.4413,8.3627 L56.3163,31.2367 L57.7903,32.7107 C57.8203,32.6787 57.8233,32.6747 57.8233,32.6747 C57.8233,32.6747 57.9963,32.4467 58.1603,32.3487 C58.3243,32.2507 58.7623,32.1957 58.5483,31.9497 C58.3333,31.7047 58.7243,31.5557 58.7693,31.5857 C58.8163,31.6167 58.8123,31.8287 59.0073,31.6227 C59.2013,31.4157 59.5993,31.2277 59.6123,31.0717 C59.6263,30.9157 59.9713,30.5047 59.9713,30.5047 L60.3433,30.2747 C60.3433,30.2747 60.8913,29.8367 60.9493,29.8327" id="Fill-3" fill="#CC3524"></path>
                    <g id="Group-7" transform="translate(0.000000, 0.922100)">
                        <mask id="mask-2" fill="white">
                            <use xlink:href="#path-1"></use>
                        </mask>
                        <g id="Clip-6"></g>
                        <polygon id="Fill-5" fill="#8A8A8A" mask="url(#mask-2)" points="21.3267 30.6772 7.2837 11.8802 7.2837 30.6772 -0.0003 30.6772 -0.0003 0.1482 6.8477 0.1482 20.9337 18.9892 20.9337 0.1482 28.1747 0.1482 28.1747 30.6772"></polygon>
                    </g>
                    <polygon id="Fill-8" fill="#8A8A8A" points="106.1964 31.5993 106.1524 11.7563 98.8254 28.5463 93.7664 28.5463 86.4394 11.7563 86.4394 31.5993 79.5054 31.5993 79.5054 1.0263 88.0094 1.0263 96.2964 19.2133 104.5824 1.0263 113.0434 1.0263 113.0434 31.5993"></polygon>
                    <path d="M125.1226,16.3352 C125.1226,21.4812 129.0916,25.4502 133.7596,25.4502 C138.4686,25.4502 142.2206,21.4812 142.2206,16.3352 C142.2206,11.1892 138.4686,7.3072 133.7596,7.3072 C129.0476,7.3072 125.1226,11.1892 125.1226,16.3352 M150.2006,16.2912 C150.2006,25.1892 143.1356,31.9482 133.6716,31.9482 C124.2506,31.9482 117.1856,25.2322 117.1856,16.2912 C117.1856,7.3942 124.2506,0.8092 133.6716,0.8092 C143.1356,0.8092 150.2006,7.4382 150.2006,16.2912" id="Fill-10" fill="#8A8A8A"></path>
                    <path d="M178.0679,16.9021 C181.4259,16.9021 183.3889,15.2011 183.3889,11.9741 C183.3889,8.7901 181.4259,7.1761 178.0679,7.1761 L172.1809,7.1761 L172.1809,16.9021 L178.0679,16.9021 Z M178.2859,23.0081 L178.0679,23.0081 L172.1809,23.0081 L172.1809,31.5991 L164.4169,31.5991 L164.4169,1.0701 L178.0679,1.0701 C186.1369,1.0701 190.7589,4.9081 190.7589,11.7121 C190.7589,16.3791 188.7969,19.7371 185.2199,21.5251 L191.6319,31.5991 L182.8209,31.5991 L178.2859,23.0081 Z" id="Fill-12" fill="#8A8A8A"></path>
                    <polygon id="Fill-14" fill="#8A8A8A" points="203.7554 7.1765 203.7554 13.2385 218.3214 13.2385 218.3214 19.3435 203.7554 19.3435 203.7554 25.4935 220.3724 25.4935 220.3724 31.5995 195.9924 31.5995 195.9924 1.0705 219.8924 1.0705 219.8924 7.1765"></polygon>
                    <path d="M233.1509,25.4065 L238.6889,25.4065 C243.4429,25.4065 246.8449,21.7425 246.8449,16.3785 C246.8449,10.9705 243.2679,7.2635 238.3389,7.2635 L233.1509,7.2635 L233.1509,25.4065 Z M238.5149,1.0705 C248.1089,1.0705 254.7389,7.2635 254.7389,16.3355 C254.7389,25.3635 248.0219,31.5995 238.2099,31.5995 L225.3869,31.5995 L225.3869,1.0705 L238.5149,1.0705 Z" id="Fill-16" fill="#8A8A8A"></path>
                    <polygon id="Fill-18" fill="#8A8A8A" points="283.0855 7.3069 283.0855 31.5989 275.3225 31.5989 275.3225 7.3069 266.2075 7.3069 266.2075 1.0269 292.2885 1.0269 292.2885 7.3069"></polygon>
                    <path d="M305.982,8.7898 L301.534,20.0858 L310.343,20.0858 L305.982,8.7898 Z M299.265,25.9738 L297.042,31.5998 L289.06,31.5998 L302.231,1.0708 L310.212,1.0708 L323.078,31.5998 L314.792,31.5998 L312.611,25.9738 L299.265,25.9738 Z" id="Fill-20" fill="#8A8A8A"></path>
                    <path d="M333.6763,16.9021 L338.8223,16.9021 C342.2243,16.9021 344.1863,15.2011 344.1863,11.9741 C344.1863,8.7901 342.2243,7.1761 338.8223,7.1761 L333.6763,7.1761 L333.6763,16.9021 Z M339.2153,1.0701 C347.0213,1.0701 351.5143,4.9081 351.5143,11.7121 C351.5143,18.8641 347.0213,23.0081 339.2153,23.0081 L333.6763,23.0081 L333.6763,31.5991 L325.9123,31.5991 L325.9123,1.0701 L339.2153,1.0701 Z" id="Fill-22" fill="#8A8A8A"></path>
                    <polygon id="Fill-24" fill="#8A8A8A" points="363.3316 7.1765 363.3316 13.2385 377.8976 13.2385 377.8976 19.3435 363.3316 19.3435 363.3316 25.4935 379.9476 25.4935 379.9476 31.5995 355.5676 31.5995 355.5676 1.0705 379.4676 1.0705 379.4676 7.1765"></polygon>
                    <polygon id="Fill-26" fill="#8A8A8A" points="62.9752 55.8791 62.9642 49.6461 60.2092 55.0801 59.6912 55.0801 56.9472 49.6461 56.9472 55.8791 56.1262 55.8791 56.1262 48.3171 57.1962 48.3171 59.9612 53.7621 62.7162 48.3171 63.7752 48.3171 63.7752 55.8791"></polygon>
                    <mask id="mask-4" fill="white">
                        <use xlink:href="#path-3"></use>
                    </mask>
                    <g id="Clip-29"></g>
                    <polygon id="Fill-28" fill="#8A8A8A" mask="url(#mask-4)" points="68.962 55.8791 69.826 55.8791 69.826 48.3171 68.962 48.3171"></polygon>
                    <path d="M79.65,48.9866 L79.283,49.7976 C78.602,49.3426 77.803,49.1596 77.198,49.1596 C76.225,49.1596 75.588,49.5266 75.588,50.1646 C75.588,52.1086 79.844,51.0936 79.834,53.8376 C79.834,55.1016 78.721,55.9116 77.1,55.9116 C75.999,55.9116 74.918,55.4366 74.205,54.7556 L74.594,53.9776 C75.296,54.6586 76.258,55.0476 77.111,55.0476 C78.202,55.0476 78.883,54.6046 78.883,53.8806 C78.894,51.8926 74.637,52.9516 74.637,50.2396 C74.637,49.0516 75.685,48.2846 77.252,48.2846 C78.127,48.2846 79.024,48.5656 79.65,48.9866" id="Fill-30" fill="#8A8A8A" mask="url(#mask-4)"></path>
                    <path d="M89.1378,48.9866 L88.7708,49.7976 C88.0898,49.3426 87.2908,49.1596 86.6858,49.1596 C85.7128,49.1596 85.0758,49.5266 85.0758,50.1646 C85.0758,52.1086 89.3318,51.0936 89.3218,53.8376 C89.3218,55.1016 88.2088,55.9116 86.5888,55.9116 C85.4868,55.9116 84.4058,55.4366 83.6928,54.7556 L84.0818,53.9776 C84.7838,54.6586 85.7458,55.0476 86.5988,55.0476 C87.6898,55.0476 88.3708,54.6046 88.3708,53.8806 C88.3818,51.8926 84.1248,52.9516 84.1248,50.2396 C84.1248,49.0516 85.1728,48.2846 86.7398,48.2846 C87.6148,48.2846 88.5118,48.5656 89.1378,48.9866" id="Fill-31" fill="#8A8A8A" mask="url(#mask-4)"></path>
                    <path d="M94.1427,52.0979 C94.1427,53.7619 95.5467,55.0909 97.2327,55.0909 C98.9177,55.0909 100.3007,53.7619 100.3007,52.0979 C100.3007,50.4339 98.9177,49.1169 97.2327,49.1169 C95.5467,49.1169 94.1427,50.4339 94.1427,52.0979 M101.1867,52.0979 C101.1867,54.2259 99.4357,55.9219 97.2327,55.9219 C95.0177,55.9219 93.2677,54.2259 93.2677,52.0979 C93.2677,49.9589 95.0177,48.2949 97.2327,48.2949 C99.4357,48.2949 101.1867,49.9699 101.1867,52.0979" id="Fill-32" fill="#8A8A8A" mask="url(#mask-4)"></path>
                    <path d="M111.8297,52.7678 C111.8297,54.7338 110.6417,55.9218 108.6637,55.9218 C106.6767,55.9218 105.4767,54.7338 105.4767,52.7678 L105.4767,48.3168 L106.3417,48.3168 L106.3417,52.7678 C106.3417,54.2368 107.2267,55.0908 108.6637,55.0908 C110.1007,55.0908 110.9657,54.2368 110.9657,52.7678 L110.9657,48.3168 L111.8297,48.3168 L111.8297,52.7678 Z" id="Fill-33" fill="#8A8A8A" mask="url(#mask-4)"></path>
                    <path d="M119.7066,52.6599 C121.0786,52.6599 121.8566,52.0549 121.8566,50.8769 C121.8566,49.7319 121.0786,49.1489 119.7066,49.1489 L117.6976,49.1489 L117.6976,52.6599 L119.7066,52.6599 Z M120.2146,53.4699 C120.0526,53.4809 119.8796,53.4919 119.7066,53.4919 L117.6976,53.4919 L117.6976,55.8789 L116.8326,55.8789 L116.8326,48.3169 L119.7066,48.3169 C121.5976,48.3169 122.6886,49.2459 122.6886,50.8559 C122.6886,52.1089 122.0836,52.9519 120.9926,53.3079 L122.7646,55.8789 L121.7806,55.8789 L120.2146,53.4699 Z" id="Fill-34" fill="#8A8A8A" mask="url(#mask-4)"></path>
                    <polygon id="Fill-35" fill="#8A8A8A" mask="url(#mask-4)" points="127.531 55.8791 128.395 55.8791 128.395 48.3171 127.531 48.3171"></polygon>
                    <polygon id="Fill-36" fill="#8A8A8A" mask="url(#mask-4)" points="138.273 55.8791 139.137 55.8791 139.137 48.3171 138.273 48.3171"></polygon>
                    <path d="M148.961,48.9866 L148.594,49.7976 C147.913,49.3426 147.114,49.1596 146.509,49.1596 C145.536,49.1596 144.899,49.5266 144.899,50.1646 C144.899,52.1086 149.155,51.0936 149.145,53.8376 C149.145,55.1016 148.032,55.9116 146.412,55.9116 C145.31,55.9116 144.229,55.4366 143.516,54.7556 L143.905,53.9776 C144.607,54.6586 145.569,55.0476 146.422,55.0476 C147.513,55.0476 148.194,54.6046 148.194,53.8806 C148.205,51.8926 143.948,52.9516 143.948,50.2396 C143.948,49.0516 144.996,48.2846 146.563,48.2846 C147.438,48.2846 148.335,48.5656 148.961,48.9866" id="Fill-37" fill="#8A8A8A" mask="url(#mask-4)"></path>
                    <path d="M158.6646,52.0979 C158.6646,53.7619 160.0686,55.0909 161.7546,55.0909 C163.4396,55.0909 164.8226,53.7619 164.8226,52.0979 C164.8226,50.4339 163.4396,49.1169 161.7546,49.1169 C160.0686,49.1169 158.6646,50.4339 158.6646,52.0979 M165.7086,52.0979 C165.7086,54.2259 163.9576,55.9219 161.7546,55.9219 C159.5396,55.9219 157.7896,54.2259 157.7896,52.0979 C157.7896,49.9589 159.5396,48.2949 161.7546,48.2949 C163.9576,48.2949 165.7086,49.9699 165.7086,52.0979" id="Fill-38" fill="#8A8A8A" mask="url(#mask-4)"></path>
                    <path d="M171.0362,52.6599 L172.9812,52.6599 C174.3422,52.6599 175.1312,52.0549 175.1312,50.8769 C175.1312,49.7319 174.3422,49.1489 172.9812,49.1489 L171.0362,49.1489 L171.0362,52.6599 Z M173.0132,48.3169 C174.8822,48.3169 175.9622,49.2459 175.9622,50.8559 C175.9622,52.5299 174.8822,53.4919 173.0132,53.4919 L171.0362,53.4919 L171.0362,55.8789 L170.1722,55.8789 L170.1722,48.3169 L173.0132,48.3169 Z" id="Fill-39" fill="#8A8A8A" mask="url(#mask-4)"></path>
                    <polygon id="Fill-40" fill="#8A8A8A" mask="url(#mask-4)" points="181.1505 49.1487 181.1505 51.6337 184.9635 51.6337 184.9635 52.4647 181.1505 52.4647 181.1505 55.0577 185.5585 55.0577 185.5585 55.8787 180.2865 55.8787 180.2865 48.3167 185.4175 48.3167 185.4175 49.1487"></polygon>
                    <polygon id="Fill-41" fill="#8A8A8A" mask="url(#mask-4)" points="195.608 55.8791 191.071 49.8081 191.071 55.8791 190.207 55.8791 190.207 48.3171 191.103 48.3171 195.64 54.3991 195.64 48.3171 196.494 48.3171 196.494 55.8791"></polygon>
                    <polygon id="Fill-42" fill="#8A8A8A" mask="url(#mask-4)" points="207.2457 49.1487 207.2457 51.8067 210.7777 51.8067 210.7777 52.6377 207.2457 52.6377 207.2457 55.8787 206.3817 55.8787 206.3817 48.3167 211.1877 48.3167 211.1877 49.1487"></polygon>
                    <path d="M215.5123,52.0979 C215.5123,53.7619 216.9163,55.0909 218.6013,55.0909 C220.2863,55.0909 221.6693,53.7619 221.6693,52.0979 C221.6693,50.4339 220.2863,49.1169 218.6013,49.1169 C216.9163,49.1169 215.5123,50.4339 215.5123,52.0979 M222.5553,52.0979 C222.5553,54.2259 220.8053,55.9219 218.6013,55.9219 C216.3873,55.9219 214.6363,54.2259 214.6363,52.0979 C214.6363,49.9589 216.3873,48.2949 218.6013,48.2949 C220.8053,48.2949 222.5553,49.9699 222.5553,52.0979" id="Fill-43" fill="#8A8A8A" mask="url(#mask-4)"></path>
                    <path d="M229.8931,52.6599 C231.2651,52.6599 232.0431,52.0549 232.0431,50.8769 C232.0431,49.7319 231.2651,49.1489 229.8931,49.1489 L227.8841,49.1489 L227.8841,52.6599 L229.8931,52.6599 Z M230.4011,53.4699 C230.2391,53.4809 230.0661,53.4919 229.8931,53.4919 L227.8841,53.4919 L227.8841,55.8789 L227.0201,55.8789 L227.0201,48.3169 L229.8931,48.3169 C231.7841,48.3169 232.8741,49.2459 232.8741,50.8559 C232.8741,52.1089 232.2701,52.9519 231.1791,53.3079 L232.9511,55.8789 L231.9671,55.8789 L230.4011,53.4699 Z" id="Fill-44" fill="#8A8A8A" mask="url(#mask-4)"></path>
                    <path d="M243.2808,55.0578 L245.5598,55.0578 C246.7918,55.0578 247.5048,54.5718 247.5048,53.7078 C247.5048,52.8868 246.7918,52.4008 245.5598,52.4008 L243.2808,52.4008 L243.2808,55.0578 Z M243.2808,51.5788 L245.5598,51.5788 C246.5758,51.5788 247.1698,51.1368 247.1698,50.3478 C247.1698,49.5808 246.5758,49.1488 245.5598,49.1488 L243.2808,49.1488 L243.2808,51.5788 Z M245.6028,48.3168 C247.1268,48.3168 248.0448,49.0188 248.0448,50.2068 C248.0448,51.0938 247.5368,51.7308 246.6508,51.9138 C247.7418,52.0768 248.3798,52.7888 248.3798,53.8268 C248.3798,55.1118 247.3638,55.8788 245.6568,55.8788 L242.4168,55.8788 L242.4168,48.3168 L245.6028,48.3168 Z" id="Fill-45" fill="#8A8A8A" mask="url(#mask-4)"></path>
                    <path d="M259.2173,52.7678 C259.2173,54.7338 258.0293,55.9218 256.0523,55.9218 C254.0653,55.9218 252.8653,54.7338 252.8653,52.7678 L252.8653,48.3168 L253.7303,48.3168 L253.7303,52.7678 C253.7303,54.2368 254.6153,55.0908 256.0523,55.0908 C257.4883,55.0908 258.3533,54.2368 258.3533,52.7678 L258.3533,48.3168 L259.2173,48.3168 L259.2173,52.7678 Z" id="Fill-46" fill="#8A8A8A" mask="url(#mask-4)"></path>
                    <path d="M268.8668,48.9866 L268.4998,49.7976 C267.8188,49.3426 267.0198,49.1596 266.4148,49.1596 C265.4428,49.1596 264.8048,49.5266 264.8048,50.1646 C264.8048,52.1086 269.0618,51.0936 269.0518,53.8376 C269.0518,55.1016 267.9378,55.9116 266.3178,55.9116 C265.2158,55.9116 264.1358,55.4366 263.4228,54.7556 L263.8108,53.9776 C264.5128,54.6586 265.4748,55.0476 266.3288,55.0476 C267.4198,55.0476 268.0998,54.6046 268.0998,53.8806 C268.1108,51.8926 263.8548,52.9516 263.8548,50.2396 C263.8548,49.0516 264.9028,48.2846 266.4698,48.2846 C267.3448,48.2846 268.2408,48.5656 268.8668,48.9866" id="Fill-47" fill="#8A8A8A" mask="url(#mask-4)"></path>
                    <polygon id="Fill-48" fill="#8A8A8A" mask="url(#mask-4)" points="273.71 55.8791 274.574 55.8791 274.574 48.3171 273.71 48.3171"></polygon>
                    <polygon id="Fill-49" fill="#8A8A8A" mask="url(#mask-4)" points="285.1539 55.8791 280.6169 49.8081 280.6169 55.8791 279.7529 55.8791 279.7529 48.3171 280.6489 48.3171 285.1859 54.3991 285.1859 48.3171 286.0399 48.3171 286.0399 55.8791"></polygon>
                    <polygon id="Fill-50" fill="#8A8A8A" mask="url(#mask-4)" points="292.0923 49.1487 292.0923 51.6337 295.9053 51.6337 295.9053 52.4647 292.0923 52.4647 292.0923 55.0577 296.4993 55.0577 296.4993 55.8787 291.2283 55.8787 291.2283 48.3167 296.3593 48.3167 296.3593 49.1487"></polygon>
                    <path d="M305.7925,48.9866 L305.4255,49.7976 C304.7445,49.3426 303.9455,49.1596 303.3405,49.1596 C302.3685,49.1596 301.7305,49.5266 301.7305,50.1646 C301.7305,52.1086 305.9875,51.0936 305.9775,53.8376 C305.9775,55.1016 304.8635,55.9116 303.2435,55.9116 C302.1415,55.9116 301.0615,55.4366 300.3485,54.7556 L300.7365,53.9776 C301.4385,54.6586 302.4005,55.0476 303.2545,55.0476 C304.3455,55.0476 305.0255,54.6046 305.0255,53.8806 C305.0365,51.8926 300.7805,52.9516 300.7805,50.2396 C300.7805,49.0516 301.8285,48.2846 303.3955,48.2846 C304.2705,48.2846 305.1665,48.5656 305.7925,48.9866" id="Fill-51" fill="#8A8A8A" mask="url(#mask-4)"></path>
                    <path d="M315.2808,48.9866 L314.9128,49.7976 C314.2318,49.3426 313.4328,49.1596 312.8278,49.1596 C311.8558,49.1596 311.2188,49.5266 311.2188,50.1646 C311.2188,52.1086 315.4748,51.0936 315.4648,53.8376 C315.4648,55.1016 314.3508,55.9116 312.7308,55.9116 C311.6288,55.9116 310.5488,55.4366 309.8358,54.7556 L310.2238,53.9776 C310.9268,54.6586 311.8878,55.0476 312.7418,55.0476 C313.8328,55.0476 314.5128,54.6046 314.5128,53.8806 C314.5238,51.8926 310.2668,52.9516 310.2668,50.2396 C310.2668,49.0516 311.3158,48.2846 312.8828,48.2846 C313.7578,48.2846 314.6538,48.5656 315.2808,48.9866" id="Fill-52" fill="#8A8A8A" mask="url(#mask-4)"></path>
                </g>
            </g>
        </g>
    </g>
</svg>